<svg width="100%" height="100%" viewBox="0 0 61 62" fill="none" xmlns="http://www.w3.org/2000/svg">
<g id="&#240;&#159;&#166;&#134; emoji &#34;angry face&#34;">
<path id="Subtract" fill-rule="evenodd" clip-rule="evenodd" d="M30.133 61.1264C46.7712 61.1264 60.2595 47.6381 60.2595 31C60.2595 14.3635 46.7712 0.873535 30.133 0.873535C13.4965 0.873535 0.0065918 14.3635 0.0065918 31C0.0065918 47.6381 13.4965 61.1264 30.133 61.1264ZM30.1329 43.5526C40.7056 43.5526 42.5852 50.5821 42.6605 50.8817C42.7525 51.2466 42.5885 51.6265 42.2605 51.814C42.1316 51.8859 41.9893 51.9211 41.8488 51.9211C41.6345 51.9211 41.4203 51.8374 41.2596 51.6784C41.2295 51.6483 37.9892 48.5737 30.1329 48.5737C22.2766 48.5737 19.038 51.6483 19.0062 51.6801C18.7368 51.9412 18.3284 51.9914 18.002 51.8089C17.6773 51.6215 17.5133 51.2449 17.6053 50.8817C17.6807 50.5821 19.5585 43.5526 30.1329 43.5526ZM11.7223 24.3052C12.0922 24.3052 20.8473 24.3688 26.2951 29.8166C26.9496 30.4711 26.9496 31.5288 26.2951 32.1832C25.9688 32.5096 25.5403 32.6736 25.1118 32.6736C25.102 32.6736 25.0922 32.6708 25.0821 32.6679C25.0717 32.665 25.061 32.6619 25.0499 32.6619L25.0547 32.7062C25.0833 32.9708 25.1118 33.2346 25.1118 33.5105C25.1118 36.7474 23.239 39.3684 20.9276 39.3684C18.6162 39.3684 16.7434 36.7474 16.7434 33.5105C16.7434 31.6209 17.3945 29.9572 18.387 28.8861C14.9425 27.6894 11.7692 27.6526 11.7206 27.6526C10.7968 27.6492 10.0486 26.8994 10.0503 25.9755C10.0503 25.0533 10.7984 24.3052 11.7223 24.3052ZM33.9707 29.8166C39.4202 24.3688 48.1736 24.3052 48.5435 24.3052C49.4674 24.3052 50.2139 25.0533 50.2155 25.9755C50.2172 26.8994 49.4691 27.6492 48.5469 27.6526C48.4967 27.6526 45.3233 27.6894 41.8789 28.8861C42.8714 29.9572 43.5224 31.6209 43.5224 33.5105C43.5224 36.7474 41.6496 39.3684 39.3382 39.3684C37.0269 39.3684 35.154 36.7474 35.154 33.5105C35.154 33.2672 35.1773 33.0333 35.2006 32.7999C35.2052 32.7539 35.2098 32.7079 35.2142 32.6619C35.2044 32.6619 35.195 32.6647 35.1853 32.6676C35.1753 32.6706 35.1651 32.6736 35.154 32.6736C34.7255 32.6736 34.2971 32.5096 33.9707 32.1832C33.3163 31.5288 33.3163 30.4711 33.9707 29.8166Z" fill="url(#paint0_linear_141_20)"/>
</g>
<defs>
<linearGradient id="paint0_linear_141_20" x1="29.9612" y1="61.2298" x2="29.9612" y2="0.873536" gradientUnits="userSpaceOnUse">
<stop stop-color="#FFCC4D"/>
<stop offset="1" stop-color="#FF2727"/>
</linearGradient>
</defs>
</svg>
