<svg width="100%" height="100%" viewBox="0 0 61 61" fill="none" xmlns="http://www.w3.org/2000/svg">
<g id="&#240;&#159;&#166;&#134; emoji &#34;angry face&#34;">
<path id="Vector" d="M58.9833 30.1782C58.9833 45.9879 46.1666 58.8046 30.3569 58.8046C14.5488 58.8046 1.73047 45.9879 1.73047 30.1782C1.73047 14.3701 14.5488 1.55176 30.3569 1.55176C46.1666 1.55176 58.9833 14.3701 58.9833 30.1782Z" stroke="white" stroke-width="3"/>
<path id="Vector_2" d="M42.8844 50.0599C42.8091 49.7603 40.9295 42.7308 30.3568 42.7308C19.7824 42.7308 17.9045 49.7603 17.8292 50.0599C17.7372 50.4231 17.9012 50.7997 18.2259 50.9872C18.5522 51.1696 18.9606 51.1194 19.2301 50.8583C19.2619 50.8265 22.5005 47.7519 30.3568 47.7519C38.2131 47.7519 41.4534 50.8265 41.4835 50.8566C41.6442 51.0156 41.8584 51.0993 42.0726 51.0993C42.2132 51.0993 42.3555 51.0642 42.4844 50.9922C42.8124 50.8047 42.9764 50.4248 42.8844 50.0599ZM26.519 28.9949C21.0712 23.547 12.3161 23.4834 11.9462 23.4834C11.0223 23.4834 10.2742 24.2315 10.2742 25.1537C10.2725 26.0776 11.0206 26.8274 11.9445 26.8308C11.9931 26.8308 15.1664 26.8676 18.6108 28.0643C17.6183 29.1355 16.9673 30.7991 16.9673 32.6887C16.9673 35.9256 18.8401 38.5466 21.1515 38.5466C23.4629 38.5466 25.3357 35.9256 25.3357 32.6887C25.3357 32.3975 25.3039 32.1196 25.2738 31.8401C25.2956 31.8401 25.3156 31.8519 25.3357 31.8519C25.7642 31.8519 26.1926 31.6878 26.519 31.3615C27.1734 30.7071 27.1734 29.6493 26.519 28.9949ZM48.7674 23.4834C48.3975 23.4834 39.6441 23.547 34.1946 28.9949C33.5402 29.6493 33.5402 30.7071 34.1946 31.3615C34.5209 31.6878 34.9494 31.8519 35.3779 31.8519C35.3996 31.8519 35.418 31.8401 35.4381 31.8401C35.4113 32.1196 35.3779 32.3975 35.3779 32.6887C35.3779 35.9256 37.2507 38.5466 39.5621 38.5466C41.8735 38.5466 43.7463 35.9256 43.7463 32.6887C43.7463 30.7991 43.0953 29.1355 42.1028 28.0643C45.5472 26.8676 48.7205 26.8308 48.7707 26.8308C49.693 26.8274 50.4411 26.0776 50.4394 25.1537C50.4377 24.2315 49.6913 23.4834 48.7674 23.4834Z" fill="white"/>
</g>
</svg>
