<svg width="100%" height="100%" viewBox="0 0 63 61" fill="none" xmlns="http://www.w3.org/2000/svg">
<g id="&#240;&#159;&#166;&#134; emoji &#34;fearful face&#34;">
<path id="Vector" d="M31.7272 58.8563C24.6053 58.8563 17.2527 56.5858 11.7066 51.8958C6.19756 47.2371 2.37842 40.1169 2.37842 30.1781C2.37842 20.2394 6.19756 13.1192 11.7066 8.46046C17.2527 3.77046 24.6053 1.5 31.7272 1.5C39.6382 1.5 46.8774 4.14021 52.2143 8.89147C57.9762 14.0803 61.076 21.429 61.076 30.1781C61.076 38.9244 57.9781 46.2204 52.2142 51.4109C46.8732 56.1658 39.579 58.8563 31.7272 58.8563Z" stroke="white" stroke-width="3"/>
<g id="Group">
<path id="Vector_2" d="M39.004 13.5843L38.955 13.53C38.5044 12.9434 37.6625 12.8278 37.0709 13.273C36.4843 13.7237 36.3687 14.5656 36.8139 15.1571C37.6007 16.3452 38.5752 17.4034 39.6927 18.2931C42.6846 20.737 46.4944 21.9511 50.3495 21.6786C52.1626 21.5081 51.9061 19.153 50.2859 18.9922C46.0249 18.5098 42.0541 16.605 39.004 13.5843Z" fill="white"/>
<path id="Vector_3" d="M22.5671 13.4054L22.6392 13.3305C23.12 12.8116 23.9238 12.787 24.4427 13.2678C24.9116 13.7005 24.9838 14.4249 24.6109 14.9418C23.827 16.0449 22.8691 17.0188 21.7807 17.8284C18.8649 20.0644 15.206 21.093 11.5555 20.7141C9.84487 20.4906 10.1618 18.2634 11.6998 18.1664C15.754 17.8366 19.5824 16.1624 22.5671 13.4054Z" fill="white"/>
<path id="Vector_4" d="M21.3511 22.8933C19.1172 22.8933 17.0859 24.7806 17.0859 27.9155C17.0859 31.0504 19.1172 32.9324 21.3511 32.9324C23.5903 32.9324 25.6162 31.045 25.6162 27.9155C25.6162 24.786 23.6116 22.8933 21.3511 22.8933Z" fill="white"/>
<path id="Vector_5" d="M41.8237 22.8933C39.5899 22.8933 37.5586 24.7806 37.5586 27.9155C37.5586 31.0504 39.5899 32.9324 41.8237 32.9324C44.0576 32.9324 46.0889 31.045 46.0889 27.9155C46.0889 24.786 44.0576 22.8933 41.8237 22.8933Z" fill="white"/>
<path id="Union" d="M42.4121 38.7165L42.4684 38.68C42.8551 38.4401 42.991 37.8964 42.7777 37.4614C42.586 37.0685 42.1579 36.8967 41.7886 37.0635C41.0022 37.4111 40.268 37.8992 39.6136 38.504C39.2394 38.8397 38.8922 39.2064 38.574 39.5996C35.761 37.9887 33.4552 37.1462 31.0926 37.1605C28.7908 37.1744 26.5432 38.0013 23.832 39.485C23.5732 39.1825 23.2957 38.8977 23.0007 38.6331C22.375 38.0546 21.6727 37.5879 20.9207 37.2554C20.5675 37.0959 20.158 37.2603 19.9747 37.636C19.7708 38.052 19.9007 38.5719 20.2706 38.8014L20.3243 38.8363C22.3515 40.3356 23.8726 42.5602 24.6471 45.1496C24.9246 46.1364 26.2609 45.9825 26.1443 44.8313C25.9799 43.5184 25.5792 42.2699 24.977 41.1568C27.4171 39.8553 29.2844 39.236 31.1025 39.225C32.9803 39.2137 34.9116 39.8511 37.471 41.2864C36.8837 42.4136 36.4915 43.6684 36.3266 44.985C36.2047 46.1888 37.602 46.3497 37.8922 45.3178C38.702 42.6103 40.2924 40.2842 42.4121 38.7165Z" fill="white"/>
</g>
</g>
</svg>
