<svg width="100%" height="100%" viewBox="0 0 63 62" fill="none" xmlns="http://www.w3.org/2000/svg">
<g id="&#240;&#159;&#166;&#134; emoji &#34;fearful face&#34;">
<path id="Subtract" fill-rule="evenodd" clip-rule="evenodd" d="M0.801514 30.9999C0.801514 51.7305 16.811 61.1781 31.6503 61.1781C39.8412 61.1781 47.5002 58.3708 53.1381 53.3501C59.2546 47.8435 62.4991 40.1235 62.4991 30.9999C62.4991 21.8763 59.2546 14.1023 53.1381 8.59575C47.5002 3.57506 39.8944 0.821777 31.6503 0.821777C16.811 0.821777 0.801514 10.2693 0.801514 30.9999ZM38.8781 14.3517L38.927 14.4059C41.9771 17.4266 45.9479 19.3314 50.2089 19.8139C51.8292 19.9747 52.0856 22.3298 50.2726 22.5003C46.4174 22.7728 42.6076 21.5587 39.6157 19.1148C38.4982 18.2251 37.5238 17.1669 36.7369 15.9788C36.2917 15.3873 36.4073 14.5453 36.994 14.0947C37.5855 13.6494 38.4274 13.7651 38.8781 14.3517ZM22.4901 14.2271L22.5623 14.1522C23.0431 13.6334 23.8469 13.6087 24.3657 14.0895C24.8347 14.5222 24.9069 15.2467 24.5339 15.7635C23.75 16.8666 22.7922 17.8405 21.7037 18.6501C18.788 20.8861 15.1291 21.9147 11.4786 21.5358C9.76795 21.3124 10.0848 19.0851 11.6228 18.9881C15.6771 18.6583 19.5055 16.9842 22.4901 14.2271ZM17.0089 28.7372C17.0089 25.6024 19.0402 23.715 21.274 23.715C23.5346 23.715 25.5392 25.6077 25.5392 28.7372C25.5392 31.8668 23.5132 33.7541 21.274 33.7541C19.0402 33.7541 17.0089 31.8721 17.0089 28.7372ZM41.7467 23.715C39.5129 23.715 37.4816 25.6024 37.4816 28.7372C37.4816 31.8721 39.5129 33.7541 41.7467 33.7541C43.9806 33.7541 46.0119 31.8668 46.0119 28.7372C46.0119 25.6077 43.9806 23.715 41.7467 23.715ZM42.3914 39.5018L42.3352 39.5383C40.2155 41.106 38.625 43.4321 37.8152 46.1396C37.525 47.1715 36.1277 47.0106 36.2497 45.8068C36.4145 44.4902 36.8067 43.2354 37.3941 42.1082C34.8347 40.6729 32.9034 40.0355 31.0255 40.0468C29.2074 40.0578 27.3402 40.677 24.9 41.9786C25.5022 43.0916 25.9029 44.3402 26.0673 45.6531C26.184 46.8043 24.8476 46.9582 24.5701 45.9713C23.7956 43.382 22.2746 41.1574 20.2474 39.6581L20.1936 39.6231C19.8237 39.3937 19.6938 38.8738 19.8978 38.4577C20.0811 38.082 20.4905 37.9177 20.8437 38.0772C21.5958 38.4096 22.298 38.8764 22.9238 39.4549C23.2188 39.7195 23.4963 40.0043 23.7551 40.3068C26.4663 38.8231 28.7139 37.9961 31.0157 37.9822C33.3782 37.968 35.6841 38.8105 38.4971 40.4214C38.8152 40.0281 39.1624 39.6615 39.5367 39.3258C40.191 38.7209 40.9253 38.2329 41.7117 37.8852C42.081 37.7185 42.5091 37.8903 42.7007 38.2832C42.914 38.7182 42.7782 39.2618 42.3914 39.5018Z" fill="url(#paint0_linear_142_106)"/>
</g>
<defs>
<linearGradient id="paint0_linear_142_106" x1="31.6503" y1="60.8218" x2="31.6503" y2="0.321776" gradientUnits="userSpaceOnUse">
<stop stop-color="#FFCC4D"/>
<stop offset="1" stop-color="#8FAD00"/>
</linearGradient>
</defs>
</svg>
