<svg width="100%" height="100%" viewBox="0 0 63 61" fill="none" xmlns="http://www.w3.org/2000/svg">
<g id="&#240;&#159;&#166;&#134; emoji &#34;fearful face&#34;">
<path id="Vector" d="M31.3322 58.8563C24.2103 58.8563 16.8576 56.5858 11.3116 51.8958C5.80254 47.2371 1.9834 40.1169 1.9834 30.1781C1.9834 20.2394 5.80254 13.1192 11.3116 8.46046C16.8576 3.77046 24.2103 1.5 31.3322 1.5C39.2432 1.5 46.4824 4.14021 51.8193 8.89147C57.5812 14.0803 60.6809 21.429 60.6809 30.1781C60.6809 38.9244 57.5831 46.2204 51.8192 51.4109C46.4781 56.1658 39.184 58.8563 31.3322 58.8563Z" stroke="white" stroke-width="3"/>
<g id="Group">
<path id="Vector_2" d="M25.5943 51.1814C23.8083 51.1814 22.1556 50.2537 21.2226 48.729C20.3269 47.2522 20.4069 45.3755 21.4358 43.984C23.7283 40.7852 27.2471 39.0791 31.6188 39.0791C35.9906 39.0791 39.5093 40.7852 41.8018 43.984C42.8308 45.3755 42.9108 47.2522 42.0151 48.729C41.0821 50.2537 39.4294 51.1814 37.6433 51.1814C37.0835 51.1761 36.5237 51.0854 35.9906 50.9148C33.1489 49.9925 30.0887 49.9925 27.2471 50.9148C26.7139 51.0801 26.1541 51.1708 25.5943 51.1814Z" fill="white"/>
<path id="Vector_3" d="M41.9619 12.9604H41.9086C41.3701 13.0031 40.8956 12.6032 40.8476 12.0648C40.8049 11.5263 41.2048 11.0518 41.7433 11.0038C42.7722 10.8492 43.8225 10.8599 44.8515 11.0305C47.6398 11.457 50.1616 12.9284 51.8996 15.1516C52.694 16.2179 51.2918 17.2309 50.4122 16.4312C48.0663 14.3573 45.0914 13.1364 41.9619 12.9604Z" fill="white"/>
<path id="Vector_4" d="M21.4091 12.9605H21.4891C22.0329 12.9711 22.4754 12.5393 22.486 11.9955C22.4967 11.505 22.1342 11.0785 21.649 11.0092C20.62 10.8546 19.5698 10.8652 18.5408 11.0358C15.7471 11.457 13.2254 12.9338 11.4873 15.157C10.6983 16.2233 12.1004 17.2363 12.9748 16.4366C15.3206 14.368 18.2902 13.1417 21.4091 12.9605Z" fill="white"/>
<path id="Vector_5" d="M20.9561 22.8933C18.7222 22.8933 16.6909 24.7806 16.6909 27.9155C16.6909 31.0504 18.7222 32.9324 20.9561 32.9324C23.1952 32.9324 25.2212 31.045 25.2212 27.9155C25.2212 24.786 23.2166 22.8933 20.9561 22.8933Z" fill="white"/>
<path id="Vector_6" d="M41.4287 22.8933C39.1948 22.8933 37.1636 24.7806 37.1636 27.9155C37.1636 31.0504 39.1948 32.9324 41.4287 32.9324C43.6626 32.9324 45.6938 31.045 45.6938 27.9155C45.6938 24.786 43.6626 22.8933 41.4287 22.8933Z" fill="white"/>
</g>
</g>
</svg>
