<svg width="100%" height="100%" viewBox="0 0 63 62" fill="none" xmlns="http://www.w3.org/2000/svg">
<g id="&#240;&#159;&#166;&#134; emoji &#34;fearful face&#34;">
<path id="Subtract" fill-rule="evenodd" clip-rule="evenodd" d="M0.259521 30.9999C0.259521 51.7305 16.269 61.1781 31.1083 61.1781C39.2992 61.1781 46.9582 58.3708 52.5961 53.3501C58.7126 47.8435 61.9571 40.1235 61.9571 30.9999C61.9571 21.8763 58.7126 14.1023 52.5961 8.59575C46.9582 3.57506 39.3524 0.821777 31.1083 0.821777C16.269 0.821777 0.259521 10.2693 0.259521 30.9999ZM20.9986 49.5507C21.9316 51.0755 23.5843 52.0031 25.3703 52.0031C25.9301 51.9925 26.4899 51.9018 27.0231 51.7366C29.8647 50.8142 32.925 50.8142 35.7666 51.7366C36.2997 51.9072 36.8595 51.9978 37.4193 52.0031C39.2054 52.0031 40.8581 51.0755 41.7911 49.5507C42.6868 48.0739 42.6068 46.1972 41.5778 44.8057C39.2853 41.6069 35.7666 39.9008 31.3948 39.9008C27.0231 39.9008 23.5043 41.6069 21.2118 44.8057C20.1829 46.1972 20.1029 48.0739 20.9986 49.5507ZM41.738 13.7823H41.6847C41.1462 13.8249 40.6717 13.4251 40.6237 12.8866C40.5811 12.3481 40.9809 11.8736 41.5194 11.8256C42.5484 11.671 43.5987 11.6817 44.6276 11.8523C47.416 12.2788 49.9377 13.7503 51.6758 15.9735C52.4701 17.0398 51.068 18.0527 50.1883 17.253C47.8425 15.1791 44.8675 13.9582 41.738 13.7823ZM21.2651 13.7822H21.1851C18.0663 13.9634 15.0967 15.1897 12.7508 17.2583C11.8765 18.058 10.4743 17.045 11.2634 15.9787C13.0014 13.7555 15.5232 12.2787 18.3168 11.8575C19.3458 11.6869 20.3961 11.6763 21.425 11.8309C21.9102 11.9002 22.2727 12.3267 22.2621 12.8172C22.2514 13.361 21.8089 13.7928 21.2651 13.7822ZM20.7321 23.715C18.4982 23.715 16.4669 25.6024 16.4669 28.7372C16.4669 31.8721 18.4982 33.7541 20.7321 33.7541C22.9713 33.7541 24.9972 31.8668 24.9972 28.7372C24.9972 25.6077 22.9926 23.715 20.7321 23.715ZM36.9396 28.7372C36.9396 25.6024 38.9709 23.715 41.2048 23.715C43.4386 23.715 45.4699 25.6077 45.4699 28.7372C45.4699 31.8668 43.4386 33.7541 41.2048 33.7541C38.9709 33.7541 36.9396 31.8721 36.9396 28.7372Z" fill="#FFCC4D"/>
<path id="Vector" d="M31.1817 60.427C16.3071 60.427 0.259521 51.097 0.259521 30.6244C0.259521 10.1518 16.3071 0.821777 31.1817 0.821777C39.4454 0.821777 47.0693 3.5408 52.7206 8.49901C58.8518 13.9371 62.1039 21.6143 62.1039 30.6244C62.1039 39.6345 58.8518 47.2584 52.7206 52.6964C47.0693 57.6547 39.3921 60.427 31.1817 60.427Z" fill="url(#paint0_linear_141_33)"/>
</g>
<defs>
<linearGradient id="paint0_linear_141_33" x1="31.1817" y1="60.427" x2="31.1817" y2="0.821777" gradientUnits="userSpaceOnUse">
<stop offset="0.39" stop-color="#40C0E7" stop-opacity="0"/>
<stop offset="1" stop-color="#5F7AFF"/>
</linearGradient>
</defs>
</svg>
