<svg width="100%" height="100%" viewBox="0 0 61 62" fill="none" xmlns="http://www.w3.org/2000/svg">
<g id="&#240;&#159;&#166;&#134; emoji &#34;grinning face&#34;">
<path id="Subtract" fill-rule="evenodd" clip-rule="evenodd" d="M60.7539 31C60.7539 47.6384 47.2658 61.1264 30.6274 61.1264C13.989 61.1264 0.500977 47.6384 0.500977 31C0.500977 14.3616 13.989 0.873535 30.6274 0.873535C47.2658 0.873535 60.7539 14.3616 60.7539 31ZM15.5642 34.3473C20.5401 35.3147 24.5636 36.021 30.6274 36.021C36.6912 36.021 40.7147 35.3147 45.6906 34.3473C46.8271 34.1264 49.038 34.3473 49.038 37.6947C49.038 44.3895 41.3457 52.7579 30.6274 52.7579C19.9074 52.7579 12.2168 44.3895 12.2168 37.6947C12.2168 34.3473 14.4277 34.1281 15.5642 34.3473ZM20.5852 29.3262C22.8961 29.3262 24.7695 26.7035 24.7695 23.4683C24.7695 20.233 22.8961 17.6104 20.5852 17.6104C18.2743 17.6104 16.401 20.233 16.401 23.4683C16.401 26.7035 18.2743 29.3262 20.5852 29.3262ZM44.8538 23.4683C44.8538 26.7035 42.9805 29.3262 40.6696 29.3262C38.3587 29.3262 36.4853 26.7035 36.4853 23.4683C36.4853 20.233 38.3587 17.6104 40.6696 17.6104C42.9805 17.6104 44.8538 20.233 44.8538 23.4683Z" fill="#FFCC4D"/>
<path id="Vector" d="M15.5642 37.6948C15.5642 37.6948 20.5853 39.3685 30.6274 39.3685C40.6696 39.3685 45.6906 37.6948 45.6906 37.6948C45.6906 37.6948 42.3433 44.3896 30.6274 44.3896C18.9116 44.3896 15.5642 37.6948 15.5642 37.6948Z" fill="white"/>
</g>
</svg>
