<svg width="100%" height="100%" viewBox="0 0 61 61" fill="none" xmlns="http://www.w3.org/2000/svg">
<g id="&#240;&#159;&#166;&#134; emoji &#34;grinning face&#34;">
<path id="Vector" d="M59.4775 30.1782C59.4775 45.9881 46.661 58.8046 30.851 58.8046C15.0411 58.8046 2.22461 45.9881 2.22461 30.1782C2.22461 14.3683 15.0411 1.55176 30.851 1.55176C46.661 1.55176 59.4775 14.3683 59.4775 30.1782Z" stroke="white" stroke-width="3"/>
<path id="Subtract" fill-rule="evenodd" clip-rule="evenodd" d="M15.7878 33.5256C20.7637 34.493 24.7872 35.1993 30.851 35.1993C36.9148 35.1993 40.9384 34.493 45.9143 33.5256C47.0507 33.3046 49.2616 33.5256 49.2616 36.873C49.2616 43.5677 41.5694 51.9362 30.851 51.9362C20.131 51.9362 12.4404 43.5677 12.4404 36.873C12.4404 33.5256 14.6514 33.3063 15.7878 33.5256ZM30.8511 38.5467C20.8089 38.5467 15.7878 36.873 15.7878 36.873C15.7878 36.873 19.1352 43.5678 30.8511 43.5678C42.5669 43.5678 45.9143 36.873 45.9143 36.873C45.9143 36.873 40.8932 38.5467 30.8511 38.5467Z" fill="white"/>
<g id="Group">
<path id="Vector_2" d="M20.8089 28.5044C23.1197 28.5044 24.9931 25.8817 24.9931 22.6465C24.9931 19.4113 23.1197 16.7886 20.8089 16.7886C18.498 16.7886 16.6246 19.4113 16.6246 22.6465C16.6246 25.8817 18.498 28.5044 20.8089 28.5044Z" fill="white"/>
<path id="Vector_3" d="M40.8932 28.5044C43.2041 28.5044 45.0774 25.8817 45.0774 22.6465C45.0774 19.4113 43.2041 16.7886 40.8932 16.7886C38.5823 16.7886 36.709 19.4113 36.709 22.6465C36.709 25.8817 38.5823 28.5044 40.8932 28.5044Z" fill="white"/>
</g>
</g>
</svg>
