<svg width="100%" height="100%" viewBox="0 0 61 62" fill="none" xmlns="http://www.w3.org/2000/svg">
<g id="&#240;&#159;&#166;&#134; emoji &#34;slightly frowning face&#34;">
<path id="Subtract" fill-rule="evenodd" clip-rule="evenodd" d="M61.0067 31C61.0067 47.6384 47.5186 61.1264 30.8802 61.1264C14.2419 61.1264 0.753784 47.6384 0.753784 31C0.753784 14.3616 14.2419 0.873535 30.8802 0.873535C47.5186 0.873535 61.0067 14.3616 61.0067 31ZM30.8805 39.3683C41.4532 39.3683 43.3327 46.3978 43.4081 46.6974C43.5001 47.0623 43.3361 47.4422 43.008 47.6297C42.8792 47.7016 42.7369 47.7368 42.5963 47.7368C42.3821 47.7368 42.1678 47.6531 42.0072 47.4941C41.977 47.464 38.7368 44.3894 30.8805 44.3894C23.0242 44.3894 19.7856 47.464 19.7538 47.4958C19.4843 47.7552 19.0759 47.8104 18.7496 47.6247C18.4249 47.4372 18.2608 47.0606 18.3529 46.6974C18.4282 46.3978 20.3061 39.3683 30.8805 39.3683ZM20.8382 29.3262C23.149 29.3262 25.0224 26.7035 25.0224 23.4683C25.0224 20.233 23.149 17.6104 20.8382 17.6104C18.5273 17.6104 16.6539 20.233 16.6539 23.4683C16.6539 26.7035 18.5273 29.3262 20.8382 29.3262ZM45.1067 23.4683C45.1067 26.7035 43.2334 29.3262 40.9225 29.3262C38.6116 29.3262 36.7383 26.7035 36.7383 23.4683C36.7383 20.233 38.6116 17.6104 40.9225 17.6104C43.2334 17.6104 45.1067 20.233 45.1067 23.4683Z" fill="#FFCC4D"/>
</g>
</svg>
