<svg width="100%" height="100%" viewBox="0 0 62 61" fill="none" xmlns="http://www.w3.org/2000/svg">
<g id="&#240;&#159;&#166;&#134; emoji &#34;slightly frowning face&#34;">
<path id="Vector" d="M59.7304 30.1782C59.7304 45.9881 46.9139 58.8046 31.104 58.8046C15.294 58.8046 2.47754 45.9881 2.47754 30.1782C2.47754 14.3683 15.294 1.55176 31.104 1.55176C46.9139 1.55176 59.7304 14.3683 59.7304 30.1782Z" stroke="white" stroke-width="3"/>
<g id="Group">
<path id="Vector_2" d="M43.6317 45.8757C43.5564 45.5761 41.6768 38.5466 31.1041 38.5466C20.5297 38.5466 18.6519 45.5761 18.5765 45.8757C18.4845 46.2389 18.6485 46.6155 18.9732 46.8029C19.2996 46.9887 19.708 46.9335 19.9774 46.6741C20.0092 46.6423 23.2478 43.5677 31.1041 43.5677C38.9604 43.5677 42.2007 46.6423 42.2308 46.6724C42.3915 46.8314 42.6057 46.9151 42.82 46.9151C42.9606 46.9151 43.1028 46.8799 43.2317 46.808C43.5597 46.6205 43.7238 46.2406 43.6317 45.8757Z" fill="white"/>
<path id="Vector_3" d="M21.0618 28.5044C23.3727 28.5044 25.246 25.8817 25.246 22.6465C25.246 19.4113 23.3727 16.7886 21.0618 16.7886C18.7509 16.7886 16.8776 19.4113 16.8776 22.6465C16.8776 25.8817 18.7509 28.5044 21.0618 28.5044Z" fill="white"/>
<path id="Vector_4" d="M41.1461 28.5044C43.457 28.5044 45.3304 25.8817 45.3304 22.6465C45.3304 19.4113 43.457 16.7886 41.1461 16.7886C38.8353 16.7886 36.9619 19.4113 36.9619 22.6465C36.9619 25.8817 38.8353 28.5044 41.1461 28.5044Z" fill="white"/>
</g>
</g>
</svg>
