<svg width="100%" height="100%" viewBox="0 0 62 62" fill="none" xmlns="http://www.w3.org/2000/svg">
<g id="Group 3">
<path id="Subtract" fill-rule="evenodd" clip-rule="evenodd" d="M0.104004 30.9999C0.104004 51.7305 16.1135 61.1781 30.9528 61.1781C39.1437 61.1781 46.8027 58.3708 52.4405 53.3501C58.5571 47.8435 61.8015 40.1235 61.8015 30.9999C61.8015 21.8763 58.5571 14.1023 52.4405 8.59575C46.8027 3.57506 39.1968 0.821777 30.9528 0.821777C16.1135 0.821777 0.104004 10.2693 0.104004 30.9999ZM15.021 23.4028C15.021 19.6334 17.4696 17.364 20.1625 17.364C22.8874 17.364 25.3039 19.6398 25.3039 23.4028C25.3039 27.1659 22.8617 29.4353 20.1625 29.4353C17.4696 29.4353 15.021 27.1723 15.021 23.4028ZM41.7857 17.3639C39.0929 17.3639 36.6443 19.6333 36.6443 23.4027C36.6443 27.1722 39.0929 29.4352 41.7857 29.4352C44.4786 29.4352 46.9272 27.1658 46.9272 23.4027C46.9272 19.6397 44.4786 17.3639 41.7857 17.3639ZM30.8924 56.2602C35.4604 56.2602 39.1635 51.8565 39.1635 46.4243C39.1635 40.9921 35.4604 36.5885 30.8924 36.5885C26.3245 36.5885 22.6214 40.9921 22.6214 46.4243C22.6214 51.8565 26.3245 56.2602 30.8924 56.2602Z" fill="#FFCC4D"/>
<path id="Vector 1" d="M37.2119 41.5064H25.1406C25.7991 40.1652 27.906 37.4827 31.0665 37.4827C34.227 37.4827 36.4803 40.1652 37.2119 41.5064Z" fill="white"/>
</g>
</svg>
