<svg width="100%" height="100%" viewBox="0 0 62 61" fill="none" xmlns="http://www.w3.org/2000/svg">
<g id="Group 4">
<path id="Vector" d="M31.0297 58.8563C23.9078 58.8563 16.5552 56.5858 11.0091 51.8958C5.50005 47.2371 1.68091 40.1169 1.68091 30.1781C1.68091 20.2394 5.50005 13.1192 11.0091 8.46046C16.5552 3.77046 23.9078 1.5 31.0297 1.5C38.9407 1.5 46.1799 4.14021 51.5168 8.89147C57.2787 14.0803 60.3785 21.429 60.3785 30.1781C60.3785 38.9244 57.2806 46.2204 51.5167 51.4109C46.1757 56.1658 38.8815 58.8563 31.0297 58.8563Z" stroke="white" stroke-width="3"/>
<g id="Group">
<path id="Vector_2" d="M20.2394 16.5422C17.5465 16.5422 15.0979 18.8116 15.0979 22.5811C15.0979 26.3505 17.5465 28.6135 20.2394 28.6135C22.9386 28.6135 25.3808 26.3441 25.3808 22.5811C25.3808 18.818 22.9643 16.5422 20.2394 16.5422Z" fill="white"/>
<path id="Vector_3" d="M41.8627 16.5422C39.1698 16.5422 36.7212 18.8116 36.7212 22.5811C36.7212 26.3505 39.1698 28.6135 41.8627 28.6135C44.5555 28.6135 47.0041 26.3441 47.0041 22.5811C47.0041 18.818 44.5555 16.5422 41.8627 16.5422Z" fill="white"/>
<path id="Subtract" fill-rule="evenodd" clip-rule="evenodd" d="M30.9693 55.4383C35.5373 55.4383 39.2403 51.0346 39.2403 45.6024C39.2403 40.1703 35.5373 35.7666 30.9693 35.7666C26.4013 35.7666 22.6982 40.1703 22.6982 45.6024C22.6982 51.0346 26.4013 55.4383 30.9693 55.4383ZM25.2175 40.6846H37.2888C36.5572 39.3434 34.3039 36.6609 31.1434 36.6609C27.9829 36.6609 25.876 39.3434 25.2175 40.6846Z" fill="white"/>
</g>
</g>
</svg>
